{
    "accessors" : [
        {
            "bufferView" : 0,
            "componentType" : 5125,
            "count" : 499428,
            "max" : [
                481980
            ],
            "min" : [
                0
            ],
            "type" : "SCALAR"
        },
        {
            "bufferView" : 1,
            "componentType" : 5126,
            "count" : 481981,
            "max" : [
                40.648250579833984,
                57.23320007324219,
                24.011829376220703
            ],
            "min" : [
                0.0910022035241127,
                4.758081436157227,
                -0.7359973192214966
            ],
            "type" : "VEC3"
        },
        {
            "bufferView" : 2,
            "componentType" : 5126,
            "count" : 481981,
            "max" : [
                1.0,
                1.0,
                1.0
            ],
            "min" : [
                -1.0,
                -1.0,
                -1.0
            ],
            "type" : "VEC3"
        }
    ],
    "asset" : {
        "generator" : "Khronos Blender glTF 2.0 exporter",
        "version" : "2.0"
    },
    "bufferViews" : [
        {
            "buffer" : 0,
            "byteLength" : 1997712,
            "byteOffset" : 0,
            "target" : 34963
        },
        {
            "buffer" : 0,
            "byteLength" : 5783772,
            "byteOffset" : 1997712,
            "target" : 34962
        },
        {
            "buffer" : 0,
            "byteLength" : 5783772,
            "byteOffset" : 7781484,
            "target" : 34962
        }
    ],
    "buffers" : [
        {
            "byteLength" : 13565256,
            "uri" : "untitled.bin"
        }
    ],
    "meshes" : [
        {
            "name" : "Ganesha",
            "primitives" : [
                {
                    "attributes" : {
                        "NORMAL" : 2,
                        "POSITION" : 1
                    },
                    "indices" : 0
                }
            ]
        }
    ],
    "nodes" : [
        {
            "mesh" : 0,
            "name" : "Ganesha",
            "translation" : [
                -20.098983764648438,
                -2.3117575645446777,
                -11.941587448120117
            ]
        }
    ],
    "scene" : 0,
    "scenes" : [
        {
            "name" : "Scene",
            "nodes" : [
                0
            ]
        }
    ]
}
